<svg width="112" height="61" viewBox="0 0 112 61" fill="none" xmlns="http://www.w3.org/2000/svg">
<path fill-rule="evenodd" clip-rule="evenodd" d="M17.9832 19.0118C12.1781 13.3663 6.86063 7.23746 2.0889 0.692265L2.08964 0.691725C1.58602 0.020404 0.346755 0.617072 0.757956 1.40711C5.23293 9.68781 11.1176 17.1283 18.143 23.3884C30.4594 34.6331 45.1166 42.9734 61.0255 47.7898C69.0081 50.2393 77.2354 51.7661 85.5463 52.3405C90.0118 52.6067 94.4831 52.5998 98.9355 52.3213L99.0167 52.2841C100.992 51.3813 102.969 50.485 104.951 49.5996C105.874 50.278 107.183 49.5854 107.173 48.6124C107.971 48.26 108.77 47.9097 109.571 47.5616L110.387 50.9973C106.594 51.6397 102.772 52.0814 98.9355 52.3213L94.0533 54.5595C94.3685 54.5307 94.6844 54.6692 94.8781 54.9357C95.1149 55.2617 95.1131 55.7027 94.8736 56.0221C93.9936 57.0729 93.0358 58.0007 92.0667 58.9395C91.7403 59.2557 91.4126 59.5731 91.0862 59.8969L88.5437 57.2318C87.9234 57.7186 87.6673 58.5711 87.9622 59.3501C88.3175 60.2886 89.3457 60.7851 90.291 60.4747C92.1088 59.8243 93.873 59.0349 95.5682 58.1133L100.596 55.7729C104.025 54.1814 107.438 52.5554 110.835 50.8949C111.651 50.5698 112.106 49.6981 111.912 48.8347C111.712 47.9667 110.901 47.3771 110.02 47.4589C109.013 47.656 108.004 47.8361 106.992 47.9993C106.959 47.9437 106.922 47.888 106.88 47.8322C105.311 45.744 103.526 43.8274 101.554 42.1142C100.521 41.2373 99.429 40.4319 98.2859 39.7039C97.4004 38.9671 96.3207 38.5026 95.1772 38.3667C94.8242 38.4029 94.5079 38.6006 94.3207 38.9021C94.1336 39.2036 94.0967 39.5749 94.2208 39.9076C94.837 40.8323 95.6603 41.6004 96.6253 42.151C97.5097 42.8173 98.3645 43.5246 99.2202 44.2327C99.2914 44.2916 99.3626 44.3505 99.4339 44.4095C100.973 45.6751 102.441 47.025 103.829 48.4531C96.8926 49.3257 89.8651 49.4065 82.8816 48.6893C66.7772 47.1158 51.1874 41.9779 37.2377 33.6464C30.302 29.4994 23.8435 24.5906 17.9832 19.0118ZM91.8904 55.4806C92.5056 55.2018 93.1286 54.9396 93.7587 54.6945L94.0533 54.5595C93.9829 54.5659 93.9125 54.5807 93.8435 54.6043C93.1723 54.8708 92.5264 55.1679 91.8904 55.4806ZM91.8904 55.4806C90.7413 56.0015 89.6193 56.5808 88.5289 57.2163L88.5437 57.2318C88.6707 57.1322 88.8129 57.0478 88.9689 56.9826C89.3671 56.7802 89.7602 56.575 90.1518 56.3706C90.7307 56.0684 91.3063 55.7679 91.8904 55.4806Z" fill="#8082A5"/>
</svg>
