<svg width="498" height="555" viewBox="0 0 498 555" fill="none" xmlns="http://www.w3.org/2000/svg">
<ellipse cx="292.987" cy="350.729" rx="204.122" ry="204.271" fill="#32334C"/>
<path fill-rule="evenodd" clip-rule="evenodd" d="M222.711 268.273C232.677 261.849 242.644 255.424 252.683 249.113C253.573 248.55 254.271 249.99 253.419 250.558L253.229 250.685C249.596 253.103 245.968 255.518 242.314 257.903C229.241 266.421 216.17 274.942 203.1 283.464C202.708 283.653 202.241 283.593 201.91 283.31C201.58 283.028 201.448 282.576 201.575 282.16C202.536 280.079 203.484 277.991 204.431 275.904C205.499 273.551 206.566 271.199 207.654 268.856C214.492 254.132 221.329 239.409 228.165 224.686C229.19 224.247 230.216 223.81 231.244 223.377L229.474 221.867C229.038 222.807 228.601 223.747 228.165 224.686C225.678 225.753 223.2 226.838 220.73 227.942C208.458 233.434 196.427 239.395 184.637 245.825C184.092 246.083 183.443 245.954 183.038 245.508C182.634 245.061 182.57 244.402 182.881 243.886L189.211 232.362C196.094 219.916 202.978 207.472 209.861 195.03C210.946 194.673 212.033 194.322 213.121 193.977L211.64 191.816C211.047 192.888 210.454 193.959 209.861 195.03C207.575 195.782 205.297 196.558 203.027 197.359C191.305 201.509 179.807 206.264 168.579 211.605C167.982 211.889 167.271 211.749 166.828 211.26C166.384 210.771 166.314 210.049 166.656 209.484C172.832 199.247 179.007 189.01 185.181 178.772C186.588 178.253 187.989 177.715 189.383 177.158L187.446 175.015C186.691 176.268 185.936 177.52 185.181 178.772C178.028 181.409 170.703 183.556 163.255 185.197C162.663 185.305 162.063 185.055 161.723 184.559C161.383 184.064 161.366 183.414 161.68 182.901C165.693 177.899 169.133 172.466 171.936 166.705C172.685 166.743 173.434 166.781 174.183 166.82L172.822 164.827C172.534 165.457 172.239 166.083 171.936 166.705C168.798 166.544 165.66 166.385 162.521 166.227L159.728 166.091C158.939 166.136 158.148 166.081 157.373 165.928C156.554 165.433 155.867 164.746 155.373 163.926L153.834 162.087C151.722 159.547 149.668 156.961 147.671 154.327C145.088 150.914 142.595 147.441 140.192 143.908C140.251 144.644 140.306 145.38 140.361 146.116C140.404 146.683 140.447 147.25 140.491 147.817C140.507 148.027 140.52 148.238 140.534 148.449C140.564 148.9 140.594 149.352 140.641 149.802C140.794 150.533 140.711 151.287 140.404 151.949C140.205 152.259 139.859 152.433 139.492 152.408C139.125 152.383 138.791 152.162 138.613 151.827C138.266 151.139 138.115 150.371 138.176 149.613L138.051 147.629C138.024 147.209 137.997 146.789 137.97 146.369C137.905 145.357 137.84 144.344 137.784 143.331L137.594 140.013C137.094 139.248 136.599 138.481 136.107 137.71C135.886 137.266 135.883 136.744 136.098 136.296C136.314 135.849 136.723 135.525 137.209 135.42C137.302 135.4 137.395 135.38 137.489 135.362C137.503 135.161 137.521 134.96 137.542 134.76L137.547 134.765C137.543 134.836 137.547 134.908 137.561 134.981C137.573 135.102 137.579 135.223 137.579 135.344C137.75 135.31 137.922 135.279 138.094 135.251L137.547 134.765C137.57 134.396 137.828 134.081 138.197 134.009C138.636 133.924 139.074 134.215 139.185 134.666C139.219 134.809 139.253 134.953 139.285 135.098C142.508 134.794 145.768 135.39 148.693 136.839C149.435 137.323 149.651 138.314 149.178 139.064C148.681 139.79 147.704 140.004 146.949 139.551C144.839 138.553 142.525 138.102 140.217 138.223C140.032 137.938 139.848 137.653 139.664 137.368C139.698 137.663 139.725 137.959 139.747 138.256C139.903 138.242 140.06 138.231 140.217 138.223C145.822 146.852 151.955 155.127 158.58 163.002C158.364 162.99 158.148 162.979 157.932 162.967L158.965 163.459C158.836 163.306 158.708 163.154 158.58 163.002C162.839 163.229 167.099 163.431 171.361 163.633C172.361 163.68 173.361 163.727 174.362 163.775C174.831 163.807 175.261 164.052 175.526 164.441C175.792 164.83 175.864 165.319 175.722 165.768C173.254 171.245 170.228 176.451 166.695 181.302C165.35 181.631 164.001 181.942 162.648 182.235L164.225 184.534C165.074 183.475 165.897 182.398 166.695 181.302C173.952 179.53 181.08 177.254 188.024 174.492C188.626 174.209 189.342 174.352 189.788 174.844C190.234 175.337 190.305 176.063 189.965 176.633C183.87 186.721 177.775 196.811 171.679 206.901C170.191 207.576 168.708 208.262 167.232 208.961L169.152 211.085C169.994 209.69 170.837 208.295 171.679 206.901C173.44 206.102 175.209 205.319 176.984 204.548C188.606 199.497 200.477 195.039 212.55 191.19C213.106 191.095 213.667 191.331 213.986 191.796C214.304 192.261 214.323 192.87 214.033 193.353C211.909 197.186 209.785 201.018 207.659 204.847C200.945 216.996 194.207 229.132 187.448 241.257C186.097 241.969 184.75 242.687 183.406 243.41L185.166 245.348C185.927 243.985 186.687 242.621 187.448 241.257C189.478 240.186 191.516 239.129 193.561 238.085C205.533 231.971 217.713 226.321 230.102 221.135C230.989 220.761 232.379 221.559 231.87 222.642L225.671 235.909C218.84 250.46 212.008 265.01 205.176 279.559C204.155 280.215 203.134 280.871 202.113 281.527L203.64 282.83C204.152 281.739 204.664 280.649 205.176 279.559C207.883 277.819 210.589 276.078 213.296 274.336C216.436 272.317 219.573 270.295 222.711 268.273Z" fill="#8082A5"/>
<path fill-rule="evenodd" clip-rule="evenodd" d="M205.983 479.012C200.178 473.366 194.861 467.237 190.089 460.692L190.09 460.692C189.586 460.02 188.347 460.617 188.758 461.407C193.233 469.688 199.118 477.128 206.143 483.388C218.459 494.633 233.117 502.973 249.025 507.79C257.008 510.239 265.235 511.766 273.546 512.341C278.012 512.607 282.483 512.6 286.936 512.321L287.017 512.284C288.992 511.381 290.969 510.485 292.951 509.6C293.874 510.278 295.183 509.585 295.173 508.612C295.971 508.26 296.77 507.91 297.571 507.562L298.387 510.997C294.594 511.64 290.772 512.081 286.936 512.321L282.053 514.56C282.369 514.531 282.684 514.669 282.878 514.936C283.115 515.262 283.113 515.703 282.874 516.022C281.994 517.073 281.036 518.001 280.067 518.939C279.74 519.256 279.413 519.573 279.086 519.897L276.544 517.232C275.923 517.719 275.667 518.571 275.962 519.35C276.318 520.289 277.346 520.785 278.291 520.475C280.109 519.824 281.873 519.035 283.568 518.113L288.596 515.773C292.025 514.181 295.438 512.555 298.835 510.895C299.651 510.57 300.106 509.698 299.912 508.835C299.712 507.967 298.901 507.377 298.02 507.459C297.013 507.656 296.004 507.836 294.992 507.999C294.959 507.944 294.922 507.888 294.88 507.832C293.311 505.744 291.526 503.827 289.554 502.114C288.521 501.237 287.429 500.432 286.286 499.704C285.4 498.967 284.321 498.503 283.177 498.367C282.824 498.403 282.508 498.601 282.321 498.902C282.134 499.204 282.097 499.575 282.221 499.908C282.837 500.832 283.66 501.6 284.625 502.151C285.51 502.817 286.364 503.525 287.22 504.233C287.291 504.292 287.363 504.351 287.434 504.409C288.973 505.675 290.441 507.025 291.829 508.453C284.893 509.326 277.865 509.407 270.882 508.689C254.777 507.116 239.187 501.978 225.238 493.646C218.302 489.499 211.844 484.591 205.983 479.012ZM279.89 515.481C280.506 515.202 281.129 514.94 281.759 514.695L282.053 514.56C281.983 514.566 281.912 514.581 281.843 514.604C281.172 514.871 280.526 515.168 279.89 515.481ZM279.89 515.481C278.741 516.002 277.619 516.581 276.529 517.216L276.544 517.232C276.671 517.132 276.813 517.048 276.969 516.983C277.367 516.78 277.76 516.575 278.152 516.371C278.731 516.068 279.306 515.768 279.89 515.481Z" fill="#8082A5"/>
<path d="M102.572 160.657L70.3551 199.163L82.2869 150.382L35.8788 169.495L69.0971 131.851L19.1288 127.192L66.0237 109.308L23.9424 81.9446L73.7708 87.9181L49.2169 44.1185L90.5637 72.5812L89.1621 22.3794L112.555 66.8107L134.627 21.7075L134.708 71.9287L175.196 42.2565L151.946 86.7627L201.576 79.3191L160.321 107.914L207.723 124.405L157.914 130.538L192.229 167.185L145.277 149.451L158.643 197.858L125.304 160.321L114.66 209.399L102.572 160.657Z" fill="#B550F8"/>
<path fill-rule="evenodd" clip-rule="evenodd" d="M105.357 137.505C105.041 137.822 104.612 138 104.164 138C103.717 138 103.288 137.822 102.972 137.505L89.4949 124.028C89.1781 123.712 89 123.283 89 122.836C89 122.388 89.1781 121.959 89.4949 121.643L95.903 115.235L98.6961 104.073C99.1282 102.344 100.439 100.97 102.146 100.458L137 90L126.542 124.857C126.029 126.562 124.657 127.871 122.93 128.304L111.768 131.094L105.357 137.505ZM111.421 127.708L122.112 125.036C122.689 124.892 123.148 124.454 123.318 123.884L131.977 95.0268L131.973 95.0279L131.886 95.3165L117.641 112.728C117.641 114.589 116.132 116.097 114.272 116.097C112.411 116.097 110.903 114.589 110.903 112.728C110.903 110.868 112.411 109.359 114.272 109.359L131.683 95.1149L103.113 103.686C102.546 103.857 102.111 104.314 101.968 104.888L99.2924 115.582L111.421 127.711V127.708Z" fill="white"/>
</svg>
