<svg width="24" height="24" viewBox="0 0 24 24" fill="none" xmlns="http://www.w3.org/2000/svg">
<path d="M16.8125 1H7.1875C3.75 1 1 3.75 1 7.1875V16.8125C1 20.25 3.75 23 7.1875 23H16.8125C20.25 23 23 20.25 23 16.8125V7.1875C23 3.75 20.25 1 16.8125 1ZM9.25 18.1875C9.25 18.6 8.975 18.875 8.5625 18.875H5.8125C5.4 18.875 5.125 18.6 5.125 18.1875V9.9375C5.125 9.525 5.4 9.25 5.8125 9.25H8.5625C8.975 9.25 9.25 9.525 9.25 9.9375V18.1875ZM7.1875 8.5625C6.01875 8.5625 5.125 7.66875 5.125 6.5C5.125 5.33125 6.01875 4.4375 7.1875 4.4375C8.35625 4.4375 9.25 5.33125 9.25 6.5C9.25 7.66875 8.35625 8.5625 7.1875 8.5625ZM18.875 18.1875C18.875 18.6 18.6 18.875 18.1875 18.875H16.125C15.7125 18.875 15.4375 18.6 15.4375 18.1875V15.7812V15.0938V13.7188C15.4375 13.1687 14.9563 12.6875 14.4062 12.6875C13.8562 12.6875 13.375 13.1687 13.375 13.7188V15.0938V15.7812V18.1875C13.375 18.6 13.1 18.875 12.6875 18.875H10.625C10.2125 18.875 9.9375 18.6 9.9375 18.1875V9.9375C9.9375 9.525 10.2125 9.25 10.625 9.25H13.375C13.5813 9.25 13.7188 9.31875 13.8563 9.45625C14.2688 9.31875 14.6812 9.25 15.0938 9.25C17.1562 9.25 18.875 10.9688 18.875 13.0312V18.1875Z" fill="white"/>
</svg>
