<svg width="24" height="25" viewBox="0 0 24 25" fill="none" xmlns="http://www.w3.org/2000/svg">
<path d="M21.9798 11.491C21.6398 5.69101 16.3698 1.22102 10.2998 2.22102C6.1198 2.91102 2.7698 6.301 2.1198 10.481C1.7398 12.901 2.23983 15.191 3.32983 17.081L2.43981 20.391C2.23981 21.141 2.92979 21.821 3.66979 21.611L6.9298 20.711C8.4098 21.581 10.1398 22.081 11.9898 22.081C17.6298 22.081 22.3098 17.111 21.9798 11.491ZM16.8798 15.801C16.7898 15.981 16.6798 16.151 16.5398 16.311C16.2898 16.581 16.0198 16.781 15.7198 16.901C15.4198 17.031 15.0898 17.091 14.7398 17.091C14.2298 17.091 13.6798 16.971 13.1098 16.721C12.5298 16.471 11.9598 16.141 11.3898 15.731C10.8098 15.311 10.2698 14.841 9.74981 14.331C9.22981 13.811 8.76978 13.261 8.34978 12.691C7.93978 12.121 7.6098 11.551 7.3698 10.981C7.1298 10.411 7.00982 9.86101 7.00982 9.34101C7.00982 9.00101 7.06981 8.67101 7.18981 8.37101C7.30981 8.06101 7.49983 7.78101 7.76983 7.53101C8.08983 7.21101 8.43981 7.06101 8.80981 7.06101C8.94981 7.06101 9.08978 7.09101 9.21978 7.15101C9.34978 7.21101 9.46981 7.30101 9.55981 7.43101L10.7198 9.07099C10.8098 9.20099 10.8798 9.311 10.9198 9.421C10.9698 9.531 10.9898 9.631 10.9898 9.731C10.9898 9.851 10.9498 9.97101 10.8798 10.091C10.8098 10.211 10.7198 10.331 10.5998 10.451L10.2198 10.851C10.1598 10.911 10.1398 10.971 10.1398 11.051C10.1398 11.091 10.1498 11.131 10.1598 11.171C10.1798 11.211 10.1898 11.241 10.1998 11.271C10.2898 11.441 10.4498 11.651 10.6698 11.911C10.8998 12.171 11.1398 12.441 11.3998 12.701C11.6698 12.971 11.9298 13.211 12.1998 13.441C12.4598 13.661 12.6798 13.811 12.8498 13.901C12.8798 13.911 12.9098 13.931 12.9398 13.941C12.9798 13.961 13.0198 13.961 13.0698 13.961C13.1598 13.961 13.2198 13.931 13.2798 13.871L13.6598 13.491C13.7898 13.361 13.9098 13.271 14.0198 13.211C14.1398 13.141 14.2498 13.101 14.3798 13.101C14.4798 13.101 14.5798 13.121 14.6898 13.171C14.7998 13.221 14.9198 13.281 15.0398 13.371L16.6998 14.551C16.8298 14.641 16.9198 14.751 16.9798 14.871C17.0298 15.001 17.0598 15.121 17.0598 15.261C16.9998 15.431 16.9598 15.621 16.8798 15.801Z" fill="white"/>
</svg>
